<svg xmlns="http://www.w3.org/2000/svg" viewBox="0 0 512 512">
  <defs>
    <linearGradient id="bg" x1="72" y1="48" x2="440" y2="464" gradientUnits="userSpaceOnUse">
      <stop stop-color="#557BE8"/>
      <stop offset="1" stop-color="#2444AD"/>
    </linearGradient>
    <linearGradient id="glow" x1="182" y1="160" x2="366" y2="360" gradientUnits="userSpaceOnUse">
      <stop stop-color="#FFFFFF"/>
      <stop offset="1" stop-color="#DDE6FF"/>
    </linearGradient>
    <filter id="shadow" x="-20%" y="-20%" width="140%" height="150%">
      <feDropShadow dx="0" dy="14" stdDeviation="16" flood-color="#14265F" flood-opacity=".28"/>
    </filter>
  </defs>
  <rect width="512" height="512" rx="112" fill="url(#bg)"/>
  <circle cx="404" cy="104" r="72" fill="#89A4F4" opacity=".18"/>
  <circle cx="96" cy="426" r="104" fill="#122E87" opacity=".18"/>
  <path d="M130 98h212c27.6 0 50 22.4 50 50v216c0 27.6-22.4 50-50 50H170c-27.6 0-50-22.4-50-50V108c0-5.5 4.5-10 10-10Z" fill="#17358F" opacity=".36" transform="translate(8 10)"/>
  <rect x="120" y="90" width="272" height="324" rx="50" fill="url(#glow)" filter="url(#shadow)"/>
  <circle cx="200" cy="181" r="27" fill="#F1B54C"/>
  <path d="m153 344 74-89 52 57 37-42 43 74H153Z" fill="#4269DA"/>
  <path d="m153 344 74-89 28 31-47 58h-55Z" fill="#2749B7" opacity=".92"/>
  <path d="M152 370h208" stroke="#A8B8E8" stroke-width="15" stroke-linecap="round"/>
  <path d="M333 132v69m-34-34h68" stroke="#3157D5" stroke-width="15" stroke-linecap="round"/>
</svg>
